<svg width="46" height="10" viewBox="0 0 46 10" fill="none" xmlns="http://www.w3.org/2000/svg">
<path d="M7.40014 0.218978H9.782V9.78102H7.40014V8.61314C6.76982 9.53771 5.76374 10 4.3819 10C3.03642 10 1.96973 9.52555 1.18184 8.57664C0.393947 7.62774 0 6.43552 0 5C0 3.56448 0.393947 2.37226 1.18184 1.42336C1.96973 0.474453 3.03642 0 4.3819 0C5.76374 0 6.76982 0.462288 7.40014 1.38686V0.218978ZM6.6183 6.95255C7.05468 6.44161 7.27286 5.79075 7.27286 5C7.27286 4.20925 7.05468 3.55839 6.6183 3.04744C6.19405 2.5365 5.63041 2.28102 4.92736 2.28102C4.22432 2.28102 3.65461 2.5365 3.21824 3.04744C2.79399 3.55839 2.58187 4.20925 2.58187 5C2.58187 5.79075 2.79399 6.44161 3.21824 6.95255C3.65461 7.4635 4.22432 7.71898 4.92736 7.71898C5.63041 7.71898 6.19405 7.4635 6.6183 6.95255Z" fill="black"/>
<path d="M12.1596 8.57664C11.2626 7.61557 10.8141 6.42336 10.8141 5C10.8141 3.57664 11.2626 2.39051 12.1596 1.44161C13.0687 0.480536 14.2142 0 15.596 0C16.9536 0 18.0203 0.383212 18.7961 1.14964C19.584 1.91606 20.0325 2.77372 20.1416 3.72263H17.487C17.39 3.309 17.1658 2.96837 16.8142 2.70073C16.4627 2.43309 16.0506 2.29927 15.5778 2.29927C14.899 2.29927 14.3657 2.54866 13.9778 3.04744C13.5899 3.53406 13.396 4.18491 13.396 5C13.396 5.81508 13.5899 6.47202 13.9778 6.9708C14.3657 7.45742 14.899 7.70073 15.5778 7.70073C16.0506 7.70073 16.4627 7.56691 16.8142 7.29927C17.1658 7.03163 17.39 6.691 17.487 6.27737H20.1416C20.0325 7.22628 19.584 8.08394 18.7961 8.85036C18.0203 9.61679 16.9536 10 15.596 10C14.2142 10 13.0687 9.52555 12.1596 8.57664Z" fill="black"/>
<path d="M29.5842 4.34307V9.78102H27.0023V4.10584C27.0023 2.8528 26.4932 2.22628 25.475 2.22628C24.8811 2.22628 24.4205 2.40876 24.0932 2.77372C23.778 3.13869 23.6205 3.64355 23.6205 4.28832V9.78102H21.0386V0.218978H23.4205V1.38686C23.9174 0.462288 24.8326 0 26.166 0C27.4266 0 28.3478 0.450122 28.9297 1.35037C29.7418 0.450122 30.7964 0 32.0933 0C33.2085 0 34.0631 0.346715 34.657 1.04015C35.251 1.73358 35.548 2.65815 35.548 3.81387V9.78102H32.9661V4.10584C32.9661 2.8528 32.457 2.22628 31.4388 2.22628C30.8327 2.22628 30.3721 2.41484 30.0569 2.79197C29.7418 3.15693 29.5842 3.67397 29.5842 4.34307Z" fill="black"/>
<path d="M45.9636 5.74818H39.0544C39.1393 6.40511 39.3817 6.90997 39.7817 7.26277C40.1817 7.60341 40.709 7.77372 41.3635 7.77372C41.7757 7.77372 42.1454 7.68856 42.4727 7.51825C42.8121 7.33577 43.0545 7.07421 43.1999 6.73358H45.8C45.5212 7.70681 44.9697 8.49757 44.1454 9.10584C43.3333 9.70195 42.3818 10 41.2908 10C39.8847 10 38.7332 9.53163 37.8362 8.59489C36.9392 7.65815 36.4907 6.45377 36.4907 4.98175C36.4907 3.55839 36.9392 2.37226 37.8362 1.42336C38.7332 0.474453 39.8787 0 41.2726 0C42.6666 0 43.8 0.474453 44.6727 1.42336C45.5576 2.3601 46 3.54623 46 4.98175L45.9636 5.74818ZM41.2545 2.08029C40.6726 2.08029 40.1938 2.24453 39.8181 2.57299C39.4423 2.88929 39.1999 3.32725 39.0908 3.88686H43.4181C43.3212 3.33942 43.0848 2.90146 42.709 2.57299C42.3333 2.24453 41.8484 2.08029 41.2545 2.08029Z" fill="black"/>
</svg>
