<svg width="16" height="16" viewBox="0 0 16 16" fill="none" xmlns="http://www.w3.org/2000/svg">
<path d="M8 0.25C3.71875 0.25 0.25 3.75 0.25 8C0.25 12.2812 3.71875 15.75 8 15.75C12.25 15.75 15.75 12.2812 15.75 8C15.75 3.75 12.25 0.25 8 0.25ZM13.0938 3.84375C14.0312 4.96875 14.5938 6.40625 14.5938 7.96875C14.375 7.90625 12.1875 7.46875 10 7.75C9.8125 7.3125 9.65625 6.9375 9.40625 6.4375C11.875 5.4375 12.9688 4.03125 13.0938 3.84375ZM12.375 3.0625C12.25 3.25 11.25 4.59375 8.90625 5.46875C7.8125 3.46875 6.625 1.84375 6.4375 1.59375C8.53125 1.09375 10.75 1.625 12.375 3.0625ZM5.15625 2.03125C5.34375 2.28125 6.53125 3.90625 7.625 5.875C4.53125 6.6875 1.8125 6.6875 1.5 6.65625C1.9375 4.625 3.3125 2.90625 5.15625 2.03125ZM1.375 8.03125C1.375 7.96875 1.375 7.90625 1.375 7.8125C1.65625 7.84375 4.875 7.875 8.15625 6.875C8.375 7.25 8.53125 7.625 8.71875 8C6.3125 8.6875 4.125 10.625 3.0625 12.4375C2 11.2812 1.375 9.71875 1.375 8.03125ZM3.90625 13.25C4.625 11.8438 6.5 10 9.15625 9.09375C10.0938 11.5 10.4688 13.5312 10.5625 14.125C8.4375 15.0312 5.875 14.7812 3.90625 13.25ZM11.6875 13.5C11.625 13.125 11.25 11.1875 10.4062 8.78125C12.4688 8.46875 14.2812 9 14.5312 9.0625C14.2188 10.9062 13.1562 12.5 11.6875 13.5Z" fill="#838383"/>
</svg>
