<svg fill="red" xmlns="http://www.w3.org/2000/svg">
  <defs>

    <g id="dribbble">
      <path d="M57.3438 4.75C57.9688 4.28125 58.5312 3.71875 58.9688 3.0625C58.4062 3.3125 57.75 3.5 57.0938 3.5625C57.7812 3.15625 58.2812 2.53125 58.5312 1.75C57.9062 2.125 57.1875 2.40625 56.4688 2.5625C55.8438 1.90625 55 1.53125 54.0625 1.53125C52.25 1.53125 50.7812 3 50.7812 4.8125C50.7812 5.0625 50.8125 5.3125 50.875 5.5625C48.1562 5.40625 45.7188 4.09375 44.0938 2.125C43.8125 2.59375 43.6562 3.15625 43.6562 3.78125C43.6562 4.90625 44.2188 5.90625 45.125 6.5C44.5938 6.46875 44.0625 6.34375 43.625 6.09375V6.125C43.625 7.71875 44.75 9.03125 46.25 9.34375C46 9.40625 45.6875 9.46875 45.4062 9.46875C45.1875 9.46875 45 9.4375 44.7812 9.40625C45.1875 10.7188 46.4062 11.6562 47.8438 11.6875C46.7188 12.5625 45.3125 13.0938 43.7812 13.0938C43.5 13.0938 43.25 13.0625 43 13.0312C44.4375 13.9688 46.1562 14.5 48.0312 14.5C54.0625 14.5 57.3438 9.53125 57.3438 5.1875C57.3438 5.03125 57.3438 4.90625 57.3438 4.75Z" fill="#838383"/>
    </g>

    <g id="">
      <path id="twitter" d="M93 4.40625C91 4.40625 89.4062 6.03125 89.4062 8C89.4062 10 91 11.5938 93 11.5938C94.9688 11.5938 96.5938 10 96.5938 8C96.5938 6.03125 94.9688 4.40625 93 4.40625ZM93 10.3438C91.7188 10.3438 90.6562 9.3125 90.6562 8C90.6562 6.71875 91.6875 5.6875 93 5.6875C94.2812 5.6875 95.3125 6.71875 95.3125 8C95.3125 9.3125 94.2812 10.3438 93 10.3438ZM97.5625 4.28125C97.5625 3.8125 97.1875 3.4375 96.7188 3.4375C96.25 3.4375 95.875 3.8125 95.875 4.28125C95.875 4.75 96.25 5.125 96.7188 5.125C97.1875 5.125 97.5625 4.75 97.5625 4.28125ZM99.9375 5.125C99.875 4 99.625 3 98.8125 2.1875C98 1.375 97 1.125 95.875 1.0625C94.7188 1 91.25 1 90.0938 1.0625C88.9688 1.125 88 1.375 87.1562 2.1875C86.3438 3 86.0938 4 86.0312 5.125C85.9688 6.28125 85.9688 9.75 86.0312 10.9062C86.0938 12.0312 86.3438 13 87.1562 13.8438C88 14.6562 88.9688 14.9062 90.0938 14.9688C91.25 15.0312 94.7188 15.0312 95.875 14.9688C97 14.9062 98 14.6562 98.8125 13.8438C99.625 13 99.875 12.0312 99.9375 10.9062C100 9.75 100 6.28125 99.9375 5.125ZM98.4375 12.125C98.2188 12.75 97.7188 13.2188 97.125 13.4688C96.1875 13.8438 94 13.75 93 13.75C91.9688 13.75 89.7812 13.8438 88.875 13.4688C88.25 13.2188 87.7812 12.75 87.5312 12.125C87.1562 11.2188 87.25 9.03125 87.25 8C87.25 7 87.1562 4.8125 87.5312 3.875C87.7812 3.28125 88.25 2.8125 88.875 2.5625C89.7812 2.1875 91.9688 2.28125 93 2.28125C94 2.28125 96.1875 2.1875 97.125 2.5625C97.7188 2.78125 98.1875 3.28125 98.4375 3.875C98.8125 4.8125 98.7188 7 98.7188 8C98.7188 9.03125 98.8125 11.2188 98.4375 12.125Z" fill="#838383"/>
    </g>

    <g id="">
      <path id="instagram" d="M8 0.25C3.71875 0.25 0.25 3.75 0.25 8C0.25 12.2812 3.71875 15.75 8 15.75C12.25 15.75 15.75 12.2812 15.75 8C15.75 3.75 12.25 0.25 8 0.25ZM13.0938 3.84375C14.0312 4.96875 14.5938 6.40625 14.5938 7.96875C14.375 7.90625 12.1875 7.46875 10 7.75C9.8125 7.3125 9.65625 6.9375 9.40625 6.4375C11.875 5.4375 12.9688 4.03125 13.0938 3.84375ZM12.375 3.0625C12.25 3.25 11.25 4.59375 8.90625 5.46875C7.8125 3.46875 6.625 1.84375 6.4375 1.59375C8.53125 1.09375 10.75 1.625 12.375 3.0625ZM5.15625 2.03125C5.34375 2.28125 6.53125 3.90625 7.625 5.875C4.53125 6.6875 1.8125 6.6875 1.5 6.65625C1.9375 4.625 3.3125 2.90625 5.15625 2.03125ZM1.375 8.03125C1.375 7.96875 1.375 7.90625 1.375 7.8125C1.65625 7.84375 4.875 7.875 8.15625 6.875C8.375 7.25 8.53125 7.625 8.71875 8C6.3125 8.6875 4.125 10.625 3.0625 12.4375C2 11.2812 1.375 9.71875 1.375 8.03125ZM3.90625 13.25C4.625 11.8438 6.5 10 9.15625 9.09375C10.0938 11.5 10.4688 13.5312 10.5625 14.125C8.4375 15.0312 5.875 14.7812 3.90625 13.25ZM11.6875 13.5C11.625 13.125 11.25 11.1875 10.4062 8.78125C12.4688 8.46875 14.2812 9 14.5312 9.0625C14.2188 10.9062 13.1562 12.5 11.6875 13.5Z" fill="#838383"/>
    </g>

  </defs>
</svg>
